<svg version="1.1" id="Layer_1" xmlns="http://www.w3.org/2000/svg" xmlns:xlink="http://www.w3.org/1999/xlink" x="0px" y="0px"
	 width="100%" viewBox="0 0 1024 1024" enable-background="new 0 0 1024 1024" xml:space="preserve">
<path fill="currentColor" opacity="1.000000" stroke="none" 
	d="
M483.811279,295.555450 
	C491.980164,299.472900 498.360779,305.420837 505.393127,310.424866 
	C512.848999,315.730316 512.729919,315.847321 519.967285,310.466095 
	C525.982605,305.993439 532.089111,301.642548 538.073120,297.128937 
	C541.017395,294.908173 543.776001,294.904053 546.779297,296.946991 
	C554.492798,302.193970 562.213013,307.433685 570.020935,312.537994 
	C573.525146,314.828796 573.904724,316.894958 570.803345,319.983246 
	C565.350342,325.413086 564.400513,325.645905 558.218201,321.337006 
	C555.758362,319.622589 553.052673,318.196686 550.827209,316.224030 
	C546.403259,312.302551 542.251831,312.559601 537.926208,316.236969 
	C534.274597,319.341339 529.887390,321.552521 526.685059,325.250122 
	C527.335449,327.749451 529.490784,328.636902 531.143311,329.862885 
	C552.548889,345.742493 574.071350,361.465485 595.392456,377.457153 
	C599.906799,380.843079 603.517151,381.315979 608.322266,377.917297 
	C617.017700,371.766968 626.194397,366.301483 635.070251,360.399689 
	C638.593384,358.057007 641.727539,358.059357 645.176880,360.500000 
	C657.958008,369.543335 670.773621,378.539337 683.662354,387.428345 
	C686.897339,389.659454 687.208557,391.267090 683.788879,393.649963 
	C670.943848,402.600739 658.175781,411.663208 645.452332,420.786316 
	C641.844910,423.372955 638.848694,423.372192 635.110291,420.653534 
	C625.548401,413.699921 615.658875,407.198303 605.946533,400.449432 
	C603.718079,398.900970 601.753845,398.118195 599.174072,399.920471 
	C575.554443,416.421173 551.880066,432.843475 528.234192,449.306580 
	C527.716309,449.667145 527.346313,450.239960 526.525696,451.125549 
	C531.765869,455.722565 537.329651,459.524384 543.169128,462.959717 
	C545.203125,464.156311 547.029663,463.492737 548.751038,462.280670 
	C552.563721,459.596039 556.315491,456.823273 560.161377,454.187653 
	C563.790222,451.700775 572.590088,456.076019 572.914490,460.483032 
	C573.045105,462.258392 571.713806,463.202484 570.504944,464.018433 
	C563.049561,469.050476 555.564941,474.039886 548.046570,478.977386 
	C544.877075,481.058899 541.808105,480.619324 538.770813,478.431610 
	C531.742432,473.369202 524.462036,468.636322 517.650146,463.302063 
	C514.048279,460.481598 511.489502,460.800385 508.055176,463.398224 
	C501.283875,468.520142 494.153931,473.164978 487.282166,478.158295 
	C483.902374,480.614227 480.710052,481.009521 477.186462,478.578918 
	C470.056274,473.660522 462.900665,468.777679 455.699524,463.964020 
	C452.471466,461.806213 452.623962,459.752655 455.243408,457.156982 
	C460.680450,451.769409 462.153198,451.780914 468.292480,455.918976 
	C483.445251,466.132416 478.705750,466.088715 492.809692,456.322968 
	C494.982727,454.818329 497.384277,453.576935 499.056030,451.432251 
	C498.931885,449.579773 497.376312,448.985718 496.215118,448.172058 
	C473.842163,432.495605 451.376068,416.950684 429.114441,401.118103 
	C425.120148,398.277344 422.190979,398.543213 418.452148,401.246857 
	C409.006256,408.077393 399.325500,414.582184 389.808075,421.315277 
	C387.025635,423.283752 384.506073,423.656525 381.607422,421.568848 
	C368.091370,411.834351 354.517029,402.180786 340.991028,392.460022 
	C340.375793,392.017883 340.026520,391.205597 339.162628,390.037262 
	C343.570557,386.780640 347.759460,383.587097 352.049957,380.536469 
	C361.146332,374.068817 370.380280,367.791260 379.386169,361.201263 
	C383.637115,358.090668 387.237793,358.119080 391.623535,361.121735 
	C400.553864,367.235901 409.835785,372.834015 418.903168,378.751587 
	C422.002991,380.774567 424.779449,381.343079 428.029449,378.932983 
	C451.177673,361.767242 474.392365,344.691132 497.570831,327.566101 
	C498.211365,327.092834 498.683044,326.391052 499.722961,325.266510 
	C494.477448,320.862701 489.246521,316.878174 483.520111,313.583771 
	C481.362091,312.342255 479.316620,313.547272 477.484131,314.795898 
	C473.492371,317.515808 469.514130,320.255890 465.550903,323.017181 
	C463.589630,324.383636 461.640717,324.787567 459.565063,323.271790 
	C456.883148,321.313232 453.952759,319.551392 452.947266,316.104675 
	C452.635284,315.035278 453.547058,314.222961 454.379883,313.667755 
	C463.247131,307.756073 472.123291,301.857513 481.038483,296.018646 
	C481.678406,295.599518 482.643158,295.676331 483.811279,295.555450 
M466.151398,410.313171 
	C479.758453,419.339813 493.502716,428.169464 506.898712,437.499176 
	C511.636169,440.798615 515.047791,440.665466 519.781738,437.404999 
	C538.168518,424.741394 556.874817,412.542236 575.433105,400.126709 
	C580.077148,397.019775 584.612610,393.750427 589.119385,390.610474 
	C587.932190,388.127838 586.320374,386.925232 584.701599,385.776581 
	C562.009644,369.675262 539.276001,353.632568 516.636230,337.458313 
	C513.886292,335.493744 511.945526,335.497650 509.143646,337.500305 
	C489.217804,351.742188 469.108948,365.727997 449.178589,379.963654 
	C444.813080,383.081787 439.892731,385.632751 435.993195,390.402740 
	C446.144348,397.104187 455.846649,403.509338 466.151398,410.313171 
M392.448700,402.917328 
	C398.401855,398.811340 404.354980,394.705353 410.889343,390.198486 
	C404.978668,386.245270 399.864380,382.626282 394.556915,379.317047 
	C384.158844,372.833923 387.478516,373.006836 377.862885,379.458099 
	C372.720825,382.907959 367.226105,385.987000 362.033142,390.991180 
	C368.401825,395.377350 374.321899,399.241852 379.999023,403.435333 
	C384.136017,406.491211 387.937286,407.230316 392.448700,402.917328 
M638.210632,374.837982 
	C630.881653,379.801086 623.128418,384.172668 615.685547,390.323944 
	C620.317688,393.615784 624.254456,396.586426 628.361084,399.299896 
	C641.585999,408.038422 637.256531,409.151917 651.237305,399.742432 
	C655.396545,396.943176 660.190674,394.851562 663.861023,390.174286 
	C657.394775,385.828217 651.413757,381.717651 645.327698,377.769104 
	C643.318726,376.465698 641.763000,374.097748 638.210632,374.837982 
z"/>
<path fill="currentColor" opacity="1.000000" stroke="none" 
	d="
M238.806030,562.164062 
	C250.660461,575.338928 245.933823,593.733459 229.547440,599.504517 
	C222.694275,601.918152 215.611069,602.468384 208.403534,602.331604 
	C200.915924,602.189514 193.424301,602.267212 185.934738,602.209595 
	C184.474609,602.198303 182.704498,602.428162 182.159500,600.578552 
	C181.663040,598.893555 183.245697,598.371521 184.323944,597.663391 
	C187.007309,595.901001 187.659012,593.142700 187.665665,590.263000 
	C187.712204,570.125061 187.703598,549.986938 187.641373,529.848999 
	C187.631882,526.776611 186.943924,523.876343 183.869995,522.209717 
	C182.809769,521.634888 181.872269,520.797546 182.208832,519.445557 
	C182.557388,518.045410 183.855453,517.866638 185.020081,517.913391 
	C197.642914,518.420410 210.298050,516.683411 222.904160,518.529846 
	C231.654739,519.811584 238.572449,523.511475 240.716919,532.765503 
	C242.822983,541.853882 240.394867,549.555603 232.497025,555.111450 
	C231.965622,555.485229 231.523651,555.986084 230.712234,556.727417 
	C233.440002,558.537842 235.988113,560.229004 238.806030,562.164062 
M229.051041,582.451660 
	C231.486542,569.040894 220.503662,558.678162 207.317215,561.859680 
	C205.183060,562.374573 204.135422,563.386230 204.156815,565.586243 
	C204.236221,573.748413 204.194290,581.912842 204.381073,590.072205 
	C204.456512,593.368347 206.473709,595.224426 209.768875,595.541931 
	C217.355331,596.273315 227.378738,592.547791 229.051041,582.451660 
M204.325363,527.267029 
	C204.267990,534.248535 204.177567,541.229980 204.162827,548.211548 
	C204.148956,554.792297 204.193329,554.802368 210.902069,554.670776 
	C211.733170,554.654480 212.576569,554.702271 213.392731,554.578491 
	C219.393295,553.668579 223.392776,550.389221 225.144623,544.512817 
	C227.101349,537.949158 225.381393,531.144409 220.889389,527.611023 
	C216.510696,524.166809 209.561646,523.686340 204.325363,527.267029 
z"/>
<path fill="currentColor" opacity="1.000000" stroke="none" 
	d="
M675.159851,519.484192 
	C684.356506,522.040833 689.590942,527.819824 690.635437,536.841125 
	C691.982849,548.478149 685.726624,555.985474 675.620239,561.556641 
	C678.001648,565.744934 680.054077,569.866638 682.572876,573.680298 
	C688.214905,582.222839 692.335449,592.006958 701.609985,597.679016 
	C702.511658,598.230469 703.208008,598.984741 702.840088,600.123779 
	C702.358826,601.614075 701.001221,601.888428 699.678406,602.160278 
	C690.221008,604.103699 681.544861,600.781738 676.219238,592.617432 
	C672.405640,586.771118 669.155396,580.558655 665.610718,574.534851 
	C664.011292,571.816833 662.617493,568.942261 660.251953,566.752319 
	C658.661194,565.279663 656.736328,564.680725 654.719727,565.470215 
	C652.733582,566.247681 653.181946,568.251160 653.175537,569.839050 
	C653.147705,576.665588 653.231018,583.492371 653.248535,590.319214 
	C653.256653,593.490112 653.920654,596.280457 657.120300,597.798889 
	C658.215393,598.318542 659.216858,599.052124 658.919495,600.448425 
	C658.556152,602.153992 657.060486,602.171021 655.742249,602.178406 
	C648.748901,602.217651 641.755310,602.214783 634.761780,602.200317 
	C633.412292,602.197571 631.956360,602.124634 631.561523,600.475098 
	C631.224854,599.068665 632.277222,598.351074 633.365845,597.844543 
	C636.278381,596.489258 636.724487,593.842285 636.728027,591.133850 
	C636.755005,570.653809 636.733704,550.173706 636.667847,529.693726 
	C636.658508,526.800598 636.078186,524.023987 633.266785,522.359314 
	C632.207581,521.732178 631.299072,520.940186 631.641846,519.581421 
	C631.995239,518.180237 633.278564,517.975891 634.439819,518.009460 
	C647.883240,518.398132 661.409851,516.389282 675.159851,519.484192 
M662.652771,524.949219 
	C655.737244,523.958008 653.312317,524.969421 653.220032,529.393616 
	C653.043701,537.848022 653.194336,546.309021 653.193542,554.767334 
	C653.193359,556.830688 653.836121,558.171936 656.163940,558.571472 
	C664.114929,559.936035 672.871521,553.609741 674.520630,545.174927 
	C676.561096,534.738525 672.434082,527.266174 662.652771,524.949219 
z"/>
<path fill="currentColor" opacity="1.000000" stroke="none" 
	d="
M385.034515,573.123047 
	C385.088226,578.762756 385.173401,583.922363 385.173645,589.082031 
	C385.173798,592.827087 385.118378,596.502136 389.462799,598.251770 
	C390.386810,598.623901 390.953644,599.671448 390.583954,600.764221 
	C390.215637,601.852905 389.196075,602.156921 388.157318,602.159607 
	C380.834076,602.178467 373.510742,602.179260 366.187500,602.155701 
	C365.163849,602.152405 364.148041,601.885193 363.729919,600.801270 
	C363.197357,599.420654 364.043213,598.544067 365.111938,597.972229 
	C368.447632,596.187439 368.809692,593.079895 368.809479,589.832153 
	C368.808136,569.858032 368.787048,549.883850 368.760712,529.909729 
	C368.756653,526.818665 368.325104,523.920715 365.284943,522.140747 
	C364.220612,521.517578 363.537964,520.514221 364.121185,519.206360 
	C364.591370,518.151978 365.663116,517.940125 366.659698,517.967224 
	C379.614960,518.319946 392.648193,516.550232 405.518616,519.001709 
	C415.407196,520.885193 421.032715,526.754517 422.584595,536.096985 
	C424.081879,545.110840 420.044281,553.783386 412.152771,558.681030 
	C410.773621,559.536926 409.003479,559.844604 407.810059,561.826294 
	C414.483032,572.645569 420.086273,584.375488 428.902954,594.035522 
	C430.108429,595.356323 431.749634,596.304199 433.266510,597.307678 
	C434.372955,598.039734 435.819061,598.503662 435.489746,600.197571 
	C435.178406,601.799194 433.776215,602.009277 432.429810,602.247925 
	C421.843689,604.124390 413.031342,600.238464 407.313049,590.919556 
	C404.094116,585.673706 401.142212,580.264099 398.062592,574.932556 
	C397.147034,573.347473 396.200287,571.780518 395.278564,570.198975 
	C393.509979,567.164185 391.269775,564.418335 387.396393,565.422546 
	C383.434052,566.449707 385.635132,570.148438 385.034515,573.123047 
M397.131317,556.974731 
	C405.109924,554.313354 408.197266,545.144348 406.481171,535.593994 
	C405.244446,528.711243 399.698364,524.635925 391.968933,524.414612 
	C386.882172,524.268921 385.200653,525.703796 385.134949,530.556335 
	C385.049408,536.874817 385.099518,543.195190 385.101227,549.514709 
	C385.103577,558.394287 385.654572,558.880493 394.440369,557.738770 
	C395.094727,557.653748 395.732178,557.438416 397.131317,556.974731 
z"/>
<path fill="currentColor" opacity="1.000000" stroke="none" 
	d="
M460.648102,542.121155 
	C460.357452,537.156860 460.034332,532.678040 459.793823,528.194763 
	C459.661011,525.719238 458.947998,523.628052 456.629486,522.367920 
	C455.411194,521.705811 454.229980,520.930664 454.816833,519.291748 
	C455.294403,517.958069 456.593109,517.872314 457.760315,517.921509 
	C470.384155,518.453430 483.039429,516.704346 495.648529,518.515076 
	C504.479858,519.783325 511.192383,523.723450 513.179993,532.999756 
	C515.165466,542.266418 512.893921,550.152344 504.473236,555.533875 
	C504.059052,555.798523 503.700989,556.157776 503.344849,556.502014 
	C503.250397,556.593262 503.260345,556.792419 503.152985,557.215637 
	C503.785370,557.552612 504.464203,557.950806 505.172729,558.286377 
	C514.446777,562.679810 518.087585,570.101501 517.420410,580.171509 
	C516.795410,589.603210 511.573975,595.458191 503.428711,599.129761 
	C499.000732,601.125732 494.199341,602.111328 489.368286,602.197510 
	C479.051910,602.381653 468.729797,602.257996 458.410095,602.227051 
	C456.960388,602.222656 455.156006,602.584717 454.539551,600.762085 
	C453.990936,599.139893 455.467224,598.493103 456.586182,597.779724 
	C461.041870,594.938782 460.364136,590.098389 460.465393,586.044678 
	C460.826843,571.572205 460.633484,557.085815 460.648102,542.121155 
M495.337250,565.076172 
	C490.734100,562.282959 485.653046,561.790466 480.426819,561.948425 
	C477.937927,562.023743 476.301727,562.823303 476.332733,565.729797 
	C476.416077,573.546753 476.335449,581.365662 476.432007,589.182373 
	C476.481018,593.150696 478.657135,595.110291 482.621185,595.547852 
	C490.276642,596.392822 497.343689,592.790649 500.352997,586.263916 
	C503.743134,578.911255 502.020691,570.736633 495.337250,565.076172 
M478.711823,525.225769 
	C477.255066,525.644287 476.418610,526.635986 476.411530,528.123352 
	C476.374146,535.951233 476.378784,543.779236 476.397217,551.607239 
	C476.400635,553.061401 477.007416,554.052673 478.540100,554.562439 
	C486.242096,557.123779 495.625946,552.163391 497.681610,544.373047 
	C501.093262,531.443848 492.896820,522.721558 478.711823,525.225769 
z"/>
<path fill="currentColor" opacity="1.000000" stroke="none" 
	d="
M566.780701,524.022339 
	C567.705444,521.763000 568.987427,520.288391 570.707092,519.145935 
	C575.350281,516.061340 577.810364,516.818115 579.710083,521.987793 
	C587.634644,543.552307 595.539734,565.123962 603.483459,586.681458 
	C605.097168,591.060669 606.596558,595.552002 611.203064,597.908813 
	C612.121826,598.378845 612.810791,599.153625 612.700378,600.286987 
	C612.584778,601.473145 611.698853,602.083252 610.653625,602.082703 
	C602.334167,602.078308 594.014465,602.022644 585.696045,601.897888 
	C585.190857,601.890320 584.696533,601.158875 584.339172,600.876526 
	C584.039490,598.891296 585.441589,598.360535 586.510925,597.660583 
	C588.495728,596.361511 588.933289,594.596436 588.247131,592.451477 
	C586.725952,587.695679 585.176636,582.948792 583.655090,578.193054 
	C582.945435,575.974854 581.421082,575.059937 579.132385,575.077820 
	C572.801758,575.127319 566.470337,575.150574 560.139893,575.098572 
	C557.820312,575.079529 556.397400,576.010376 555.688477,578.240540 
	C554.579224,581.730164 553.408875,585.202148 552.178467,588.650940 
	C550.789307,592.544495 550.829346,595.878296 555.268311,597.784058 
	C556.416565,598.277100 557.266846,599.089233 556.991333,600.475403 
	C556.702942,601.926392 555.469910,602.154419 554.291443,602.160583 
	C548.460938,602.191345 542.629883,602.177551 536.799377,602.137817 
	C535.600159,602.129639 534.401611,601.852661 534.059814,600.463379 
	C533.718018,599.074402 534.585144,598.273010 535.721497,597.754395 
	C540.091736,595.760010 541.805603,591.685730 543.313110,587.640259 
	C551.161377,566.578979 558.882507,545.470276 566.780701,524.022339 
M565.324036,550.748840 
	C563.503235,556.189087 561.682434,561.629272 559.731995,567.456726 
	C566.615051,567.456726 572.795410,567.456726 579.831543,567.456726 
	C576.910950,557.780151 573.976624,548.853699 569.718262,539.047058 
	C568.020325,543.539246 566.798096,546.772888 565.324036,550.748840 
z"/>
<path fill="currentColor" opacity="1.000000" stroke="none" 
	d="
M830.135742,568.954834 
	C832.588379,575.557190 834.844299,581.817627 837.245972,588.021667 
	C838.692444,591.758301 840.323669,595.428589 844.019714,597.622253 
	C845.074219,598.248108 845.889221,599.164917 845.588440,600.477112 
	C845.202942,602.158875 843.727051,602.186218 842.393494,602.190491 
	C835.235718,602.213379 828.077759,602.208862 820.919983,602.185364 
	C819.736389,602.181458 818.471558,602.033081 818.045410,600.691650 
	C817.614502,599.335510 818.516602,598.515686 819.590637,597.910583 
	C820.647095,597.315552 821.697632,596.583374 821.650330,595.299683 
	C821.394287,588.351257 819.000000,582.022339 815.739502,575.988831 
	C815.496887,575.539917 814.585754,575.236328 813.982300,575.231140 
	C806.828552,575.169800 799.674133,575.163940 792.520020,575.183838 
	C791.493103,575.186707 790.406006,575.542358 789.996521,576.528992 
	C787.771057,581.891052 785.262634,587.187378 785.098877,593.152832 
	C785.027466,595.753662 786.828430,596.916992 788.888489,597.872986 
	C790.030701,598.403259 790.835510,599.322937 790.521790,600.640076 
	C790.190857,602.029053 788.930054,602.210449 787.731934,602.211060 
	C781.906067,602.214050 776.080017,602.199463 770.254333,602.157410 
	C769.236938,602.150085 768.242859,601.913269 767.791016,600.820129 
	C767.345703,599.743103 767.640442,598.658630 768.608032,598.229858 
	C774.360962,595.680664 775.741150,590.065857 777.619751,585.028748 
	C784.884521,565.549500 791.893921,545.975098 798.986450,526.431702 
	C799.789978,524.217529 800.793945,522.135193 802.499207,520.462891 
	C807.252625,515.801208 810.910217,516.541382 813.170410,522.682007 
	C818.800171,537.977112 824.392883,553.285889 830.135742,568.954834 
M798.185913,552.560181 
	C796.588135,557.376709 794.990417,562.193237 793.251282,567.436096 
	C800.368408,567.436096 806.543152,567.436096 813.278564,567.436096 
	C810.415100,557.698181 807.119446,548.812012 803.008606,538.780457 
	C801.157288,544.025696 799.784729,547.914612 798.185913,552.560181 
z"/>
<path fill="currentColor" opacity="1.000000" stroke="none" 
	d="
M333.697906,587.342773 
	C335.311310,591.628418 336.933441,595.443176 340.712921,597.819641 
	C341.771240,598.485107 342.416870,599.475220 341.967926,600.773010 
	C341.583710,601.883545 340.528931,602.116089 339.519836,602.121826 
	C332.032379,602.164246 324.544647,602.180725 317.057098,602.166870 
	C315.855988,602.164612 314.671631,601.865479 314.349792,600.464478 
	C314.077606,599.279846 314.876343,598.531982 315.809082,598.143860 
	C319.415466,596.643250 318.969513,593.889832 318.053040,591.038696 
	C316.730682,586.924805 315.250519,582.861084 313.961151,578.737305 
	C313.149628,576.141724 311.579468,574.976990 308.830872,575.020630 
	C302.508850,575.121094 296.184418,575.058716 289.861145,575.096191 
	C288.350159,575.105103 286.656677,575.147339 286.012726,576.813354 
	C284.042908,581.909851 281.570648,586.863281 281.222870,592.462585 
	C281.069611,594.929565 282.148071,596.587524 284.385651,597.578735 
	C285.625793,598.128113 286.983368,598.813171 286.671143,600.429810 
	C286.288818,602.409729 284.485199,602.190002 283.040710,602.199280 
	C277.716034,602.233459 272.390625,602.207886 267.066010,602.153625 
	C265.729034,602.140015 264.306274,602.028748 263.960815,600.316956 
	C263.733215,599.188965 264.329773,598.341980 265.280487,597.880249 
	C270.302551,595.441345 271.869629,590.509888 273.607666,585.903442 
	C281.003387,566.301514 288.225586,546.633789 295.447998,526.966919 
	C296.619843,523.775940 297.984039,520.830139 300.962830,518.907166 
	C305.182007,516.183411 307.669220,516.844666 309.385529,521.469177 
	C316.732819,541.266235 324.008148,561.090027 331.308990,580.904297 
	C332.056427,582.932800 332.798950,584.963074 333.697906,587.342773 
M295.202271,550.574341 
	C293.461823,556.045654 290.844818,561.246704 289.716858,567.662537 
	C296.542358,567.870361 302.944824,568.212158 309.982880,567.473694 
	C306.896057,557.523804 303.867462,548.713440 299.749298,539.550842 
	C297.358734,543.198608 296.715240,546.649902 295.202271,550.574341 
z"/>
<path fill="currentColor" opacity="1.000000" stroke="none" 
	d="
M737.967346,602.241089 
	C733.647583,602.231445 729.820007,602.241028 725.992920,602.200439 
	C724.674255,602.186523 723.169373,602.277588 722.719482,600.607727 
	C722.354187,599.251831 723.287476,598.453857 724.349487,597.838684 
	C727.189575,596.193420 727.699951,593.478699 727.701782,590.538086 
	C727.714355,570.237671 727.731934,549.937195 727.721313,529.636780 
	C727.719666,526.552734 727.330261,523.612793 724.040100,522.070374 
	C722.876892,521.525085 722.231628,520.523804 722.640869,519.219482 
	C723.082275,517.812927 724.376099,517.847595 725.541260,517.843811 
	C732.363708,517.821716 739.186279,517.807251 746.008606,517.827026 
	C747.172546,517.830444 748.479736,517.909485 748.900146,519.269104 
	C749.316223,520.614258 748.382812,521.462769 747.349609,522.085083 
	C744.704102,523.678528 744.229797,526.229736 744.226624,528.991882 
	C744.203430,549.457458 744.180298,569.923035 744.177979,590.388611 
	C744.177612,593.494751 744.664917,596.387451 747.912292,597.944519 
	C749.041077,598.485779 749.786926,599.454346 749.351013,600.776245 
	C748.903137,602.134583 747.622375,602.191345 746.446899,602.208069 
	C743.784912,602.245728 741.122131,602.232971 737.967346,602.241089 
z"/>
<path fill="currentColor" opacity="1.000000" stroke="none" 
	d="
M382.099182,674.969238 
	C384.110596,678.961548 384.820892,683.162720 387.941040,687.206360 
	C390.986084,679.515625 393.845856,672.469910 396.566498,665.370850 
	C399.204895,658.486328 401.765717,657.342468 408.444366,659.894287 
	C406.462158,673.604858 406.219666,687.039307 409.853577,701.180969 
	C406.359009,702.018311 402.278778,701.645325 397.941589,701.220520 
	C401.445465,692.235840 399.029968,683.466797 398.998718,674.682556 
	C394.673035,681.282471 392.693329,688.656250 390.057068,695.767883 
	C389.295776,697.821533 389.519196,701.079468 386.583282,701.234680 
	C383.286896,701.408875 383.346008,697.907166 382.410950,695.794922 
	C379.199036,688.538818 376.185822,681.194885 372.845398,673.289246 
	C370.344513,687.157837 370.776550,695.302673 374.310822,700.649048 
	C370.951996,702.350769 367.730042,701.360718 365.162018,700.949768 
	C366.789429,687.216919 369.238495,673.872925 365.849365,660.080627 
	C371.436279,657.267944 375.082733,658.479248 377.627930,664.530823 
	C379.046051,667.902710 380.504944,671.257446 382.099182,674.969238 
z"/>
<path fill="currentColor" opacity="1.000000" stroke="none" 
	d="
M472.072998,692.736023 
	C471.705383,696.004578 473.024719,698.261169 475.194489,700.807312 
	C470.330658,702.501892 466.090485,702.092590 461.735657,700.930908 
	C464.651855,693.393860 464.524323,665.928223 461.645508,660.399963 
	C466.879333,657.443848 482.834473,658.533997 487.333496,662.155151 
	C492.497192,666.311218 492.745941,673.936523 487.216248,678.713501 
	C484.117828,681.390076 484.470306,683.379211 486.308563,686.260254 
	C489.405884,691.114624 492.147705,696.205627 496.768982,700.100952 
	C491.117615,702.959900 486.967529,702.040649 483.863831,697.387573 
	C481.559662,693.933289 479.556580,690.279480 477.362946,686.749512 
	C476.418457,685.229614 475.496277,683.572449 473.076813,683.601746 
	C471.267426,686.368530 472.378052,689.431091 472.072998,692.736023 
M478.385315,663.894165 
	C472.434113,662.847900 472.093414,663.114136 472.022430,669.017334 
	C471.994537,671.335693 472.018921,673.654785 472.023010,675.973511 
	C472.029327,679.537842 473.958496,680.200012 476.939148,679.190308 
	C480.018982,678.146851 482.055908,676.030884 482.547028,672.823486 
	C483.075531,669.371704 482.506439,666.176392 478.385315,663.894165 
z"/>
<path fill="currentColor" opacity="1.000000" stroke="none" 
	d="
M419.049561,692.684570 
	C413.690979,680.707275 415.343475,669.536560 423.199280,663.029358 
	C434.259125,653.868225 450.406586,658.706238 454.478333,672.446350 
	C456.393402,678.908875 455.975494,685.309326 453.259552,691.466064 
	C450.389252,697.972595 445.218384,701.550964 438.208740,702.258179 
	C430.049469,703.081421 423.463684,700.401001 419.049561,692.684570 
M427.663879,667.239624 
	C423.015717,676.005371 422.924652,684.801819 428.286102,693.184448 
	C432.704590,700.092712 441.755432,699.302917 444.891571,691.711548 
	C447.905334,684.416321 448.043243,676.773499 444.639374,669.503174 
	C441.134827,662.017700 434.338928,660.974670 427.663879,667.239624 
z"/>
<path fill="currentColor" opacity="1.000000" stroke="none" 
	d="
M501.469910,692.236572 
	C498.721313,685.903381 497.882294,679.759827 499.650513,673.375793 
	C502.590790,662.760010 509.973053,657.775269 521.427673,658.693970 
	C530.481445,659.420166 537.363220,666.791992 538.190369,676.869080 
	C538.406982,679.508423 538.395264,682.228638 538.016541,684.843323 
	C536.743408,693.632202 530.899475,700.360046 523.398071,702.006287 
	C514.479309,703.963440 507.182190,700.799500 501.469910,692.236572 
M507.435242,676.094177 
	C507.018097,681.655884 507.363220,687.119019 510.075562,692.136108 
	C512.037170,695.764587 515.021423,697.923340 519.356201,697.750244 
	C523.549622,697.582825 526.022705,695.106812 527.664673,691.547607 
	C530.366089,685.691956 530.416077,679.536926 529.027100,673.453613 
	C527.456055,666.573364 523.266846,662.936523 517.993469,663.093750 
	C512.938232,663.244446 509.617249,666.786316 507.948486,673.803101 
	C507.832855,674.289368 507.700134,674.771545 507.435242,676.094177 
z"/>
<path fill="currentColor" opacity="1.000000" stroke="none" 
	d="
M622.727600,682.714294 
	C622.788696,680.108643 622.643433,677.914551 622.988892,675.800659 
	C624.832153,664.519958 632.799927,658.207336 644.412903,658.680908 
	C654.336609,659.085693 661.279175,666.344543 662.208862,677.334045 
	C662.505554,680.840576 662.157837,684.294434 661.259766,687.708557 
	C659.105042,695.899475 652.556885,701.757568 644.878723,702.290771 
	C634.782837,702.991760 628.298462,699.230713 624.697632,690.346252 
	C623.772400,688.063354 623.383179,685.563232 622.727600,682.714294 
M638.887451,696.859314 
	C644.750732,698.522400 648.661072,697.602783 650.887024,693.071533 
	C655.006531,684.685730 655.151733,675.971985 650.435730,667.804077 
	C646.830200,661.559387 638.960510,661.479553 634.522705,667.032837 
	C629.943970,672.762695 629.313477,691.504944 638.887451,696.859314 
z"/>
<path fill="currentColor" opacity="1.000000" stroke="none" 
	d="
M605.837402,702.333618 
	C593.288635,702.323364 585.993896,696.984131 583.800842,686.552185 
	C581.349854,674.893616 585.720520,664.548645 595.025818,660.338257 
	C600.967224,657.649902 607.063965,658.041138 613.011230,660.282043 
	C616.904541,661.749084 617.558716,665.347473 615.261108,670.726624 
	C613.144592,670.698303 612.797852,668.745789 611.831848,667.507751 
	C606.697876,660.928101 597.896790,661.564026 594.317261,669.094116 
	C590.932068,676.215454 590.891785,683.730713 594.416748,690.792847 
	C598.644592,699.263062 607.260010,700.037415 613.298462,692.846619 
	C614.123718,691.863892 614.650818,690.455200 616.352539,690.801941 
	C618.950745,698.484619 616.364807,701.436279 605.837402,702.333618 
z"/>
<path fill="currentColor" opacity="1.000000" stroke="none" 
	d="
M553.572998,661.294067 
	C560.019348,657.908569 566.392944,657.868591 572.772217,659.967957 
	C577.672058,661.580566 578.696472,665.828491 575.597717,670.569153 
	C573.531067,670.433777 573.222595,668.475830 572.235718,667.250610 
	C567.350586,661.185669 558.214722,661.834839 554.836426,668.851074 
	C550.888977,677.049377 551.162537,685.369324 556.327576,693.045349 
	C560.479187,699.215271 568.628479,699.278503 573.315125,693.480408 
	C574.222412,692.357910 574.634644,690.714539 576.410278,690.498291 
	C579.491638,694.593079 577.986694,699.724060 572.884033,701.174988 
	C565.458740,703.286377 557.915894,703.674011 551.564026,698.333557 
	C544.732788,692.590088 542.850342,684.785095 544.053406,676.220764 
	C544.922546,670.034180 547.711548,664.860596 553.572998,661.294067 
z"/>
</svg>